<svg xmlns="http://www.w3.org/2000/svg" id="Layer_1" x="0" y="0" enable-background="new 0 0 250 250" version="1.1" viewBox="0 0 250 250" xml:space="preserve"><path fill="#212121" d="M57.04,183.22c-0.44,0-0.89-0.01-1.33-0.04c-0.26-0.02-0.45-0.24-0.44-0.49c0.01-0.26,0.25-0.46,0.49-0.44
				c1.2,0.07,2.43,0.04,3.64-0.09c0.26-0.03,0.48,0.16,0.51,0.41c0.03,0.26-0.16,0.48-0.41,0.51
				C58.68,183.17,57.85,183.22,57.04,183.22z M52.06,182.65c-0.04,0-0.07,0-0.11-0.01c-1.25-0.29-2.46-0.69-3.61-1.2
				c-0.24-0.1-0.34-0.38-0.24-0.61c0.1-0.24,0.38-0.34,0.61-0.24c1.1,0.48,2.25,0.86,3.44,1.14c0.25,0.06,0.41,0.31,0.35,0.56
				C52.46,182.5,52.27,182.65,52.06,182.65z M63.1,182.39c-0.2,0-0.39-0.13-0.45-0.34c-0.07-0.25,0.08-0.5,0.32-0.57
				c1.18-0.33,2.32-0.75,3.41-1.27c0.23-0.11,0.51-0.01,0.62,0.22c0.11,0.23,0.01,0.51-0.22,0.62c-1.13,0.54-2.33,0.98-3.56,1.32
				C63.18,182.38,63.14,182.39,63.1,182.39z M45.29,179.68c-0.09,0-0.18-0.03-0.26-0.08c-1.03-0.71-2.01-1.52-2.92-2.42
				c-0.18-0.18-0.18-0.47,0-0.66c0.18-0.18,0.48-0.18,0.66,0c0.87,0.86,1.81,1.64,2.79,2.32c0.21,0.15,0.27,0.43,0.12,0.65
				C45.58,179.6,45.43,179.68,45.29,179.68z M69.78,179.22c-0.15,0-0.29-0.07-0.38-0.19c-0.15-0.21-0.1-0.5,0.11-0.65
				c0.59-0.42,1.15-0.87,1.68-1.35c0.19-0.17,0.48-0.16,0.66,0.03c0.17,0.19,0.16,0.48-0.03,0.66c-0.55,0.5-1.15,0.97-1.76,1.41
				C69.97,179.19,69.88,179.22,69.78,179.22z M40.02,174.48c-0.15,0-0.29-0.07-0.38-0.19c-0.73-1.02-1.39-2.12-1.94-3.26
				c-0.11-0.23-0.02-0.51,0.21-0.62c0.23-0.11,0.51-0.02,0.62,0.21c0.54,1.09,1.16,2.14,1.87,3.12c0.15,0.21,0.1,0.5-0.11,0.65
				C40.21,174.45,40.12,174.48,40.02,174.48z M41.97,168.6c0,0-0.01,0-0.01,0c-1.27-0.04-2.54-0.3-3.78-0.8
				c-0.24-0.09-0.36-0.36-0.26-0.6c0.09-0.24,0.37-0.36,0.6-0.26c1.14,0.45,2.31,0.7,3.46,0.73c0.26,0.01,0.46,0.22,0.45,0.48
				C42.43,168.4,42.22,168.6,41.97,168.6z M45.6,167.94c-0.18,0-0.35-0.11-0.43-0.28c-0.1-0.24,0.01-0.51,0.24-0.61
				c0.32-0.14,0.63-0.3,0.93-0.48c0.68-0.42,1.31-0.96,1.85-1.6c0.17-0.2,0.46-0.22,0.66-0.05c0.2,0.17,0.22,0.46,0.05,0.66
				c-0.61,0.72-1.31,1.32-2.07,1.79c-0.33,0.2-0.68,0.39-1.05,0.54C45.72,167.93,45.66,167.94,45.6,167.94z M36.76,167.83
				c-0.2,0-0.38-0.13-0.45-0.33c-0.37-1.22-0.63-2.47-0.77-3.71c-0.03-0.25,0.15-0.49,0.41-0.52c0.26-0.03,0.49,0.15,0.52,0.41
				c0.14,1.19,0.39,2.39,0.74,3.56c0.07,0.25-0.07,0.51-0.31,0.58C36.85,167.82,36.8,167.83,36.76,167.83z M35.17,165.93
				c-0.11,0-0.21-0.04-0.3-0.11c-0.94-0.8-1.8-1.77-2.54-2.86c-0.15-0.21-0.09-0.5,0.12-0.65c0.21-0.15,0.5-0.09,0.65,0.12
				c0.7,1.03,1.5,1.93,2.38,2.68c0.2,0.17,0.22,0.46,0.05,0.66C35.44,165.88,35.31,165.93,35.17,165.93z M50.41,162.53
				c-0.06,0-0.11-0.01-0.17-0.03c-0.24-0.09-0.36-0.36-0.27-0.6c0.41-1.06,0.71-2.24,0.88-3.49c0.03-0.25,0.26-0.43,0.52-0.4
				c0.25,0.03,0.43,0.27,0.4,0.52c-0.18,1.33-0.5,2.57-0.93,3.7C50.77,162.42,50.59,162.53,50.41,162.53z M35.9,160.48
				c-0.01,0-0.02,0-0.03,0c-0.26-0.02-0.45-0.24-0.43-0.49c0.03-0.41,0.07-0.82,0.12-1.23c0.11-0.87,0.28-1.72,0.5-2.53
				c0.07-0.25,0.32-0.39,0.57-0.32c0.25,0.07,0.39,0.32,0.32,0.57c-0.21,0.76-0.37,1.57-0.48,2.4c-0.05,0.39-0.09,0.79-0.11,1.17
				C36.35,160.29,36.14,160.48,35.9,160.48z M30.95,159.89c-0.18,0-0.35-0.11-0.43-0.28c-0.47-1.1-0.87-2.31-1.2-3.59
				c-0.06-0.25,0.08-0.5,0.33-0.57c0.25-0.07,0.5,0.08,0.57,0.33c0.32,1.24,0.71,2.4,1.16,3.46c0.1,0.24-0.01,0.51-0.25,0.61
				C31.07,159.88,31.01,159.89,30.95,159.89z M51.4,155.22c-0.23,0-0.44-0.18-0.46-0.41c-0.14-1.31-0.5-2.42-1.07-3.31
				c-0.14-0.22-0.07-0.5,0.14-0.64c0.22-0.14,0.5-0.07,0.64,0.14c0.64,1.01,1.05,2.26,1.21,3.71c0.03,0.26-0.16,0.48-0.41,0.51
				C51.44,155.22,51.42,155.22,51.4,155.22z M37.94,153.4c-0.08,0-0.16-0.02-0.24-0.07c-0.22-0.13-0.29-0.42-0.16-0.64
				c0.7-1.17,1.56-2.14,2.56-2.91c0.2-0.16,0.5-0.12,0.65,0.09c0.16,0.2,0.12,0.5-0.09,0.65c-0.9,0.69-1.68,1.58-2.32,2.65
				C38.25,153.32,38.09,153.4,37.94,153.4z M29.03,152.73c-0.23,0-0.43-0.17-0.46-0.4c-0.18-1.23-0.3-2.49-0.35-3.75
				c-0.01-0.26,0.19-0.47,0.45-0.48c0.27-0.02,0.47,0.19,0.48,0.45c0.05,1.22,0.17,2.45,0.34,3.65c0.04,0.25-0.14,0.49-0.39,0.53
				C29.08,152.72,29.05,152.73,29.03,152.73z M47.43,149.43c-0.05,0-0.11-0.01-0.16-0.03c-1.03-0.37-2.23-0.46-3.43-0.25
				c-0.25,0.04-0.49-0.12-0.54-0.38c-0.04-0.25,0.12-0.49,0.38-0.54c1.35-0.24,2.72-0.14,3.91,0.29c0.24,0.09,0.37,0.35,0.28,0.6
				C47.79,149.31,47.62,149.43,47.43,149.43z M28.72,145.31c-0.01,0-0.02,0-0.03,0c-0.26-0.02-0.45-0.24-0.44-0.49
				c0.07-1.25,0.21-2.51,0.41-3.74c0.04-0.25,0.28-0.43,0.53-0.38c0.25,0.04,0.43,0.28,0.39,0.53c-0.19,1.2-0.33,2.43-0.4,3.65
				C29.17,145.12,28.97,145.31,28.72,145.31z M29.9,137.98c-0.04,0-0.08,0-0.12-0.02c-0.25-0.07-0.4-0.32-0.33-0.57
				c0.32-1.21,0.71-2.42,1.15-3.59c0.09-0.24,0.36-0.36,0.6-0.27c0.24,0.09,0.36,0.36,0.27,0.6c-0.43,1.14-0.81,2.31-1.12,3.5
				C30.3,137.84,30.11,137.98,29.9,137.98z M32.52,131.03c-0.07,0-0.14-0.02-0.21-0.05c-0.23-0.11-0.32-0.39-0.21-0.62
				c0.56-1.13,1.19-2.23,1.86-3.28c0.14-0.22,0.42-0.28,0.64-0.14c0.22,0.14,0.28,0.43,0.14,0.64c-0.65,1.02-1.26,2.09-1.81,3.19
				C32.86,130.94,32.69,131.03,32.52,131.03z"/><path fill="#212121" d="M178.23,169.78c-1.15,0-2.31-0.06-3.45-0.17c-0.26-0.03-0.44-0.25-0.42-0.51c0.03-0.26,0.26-0.44,0.51-0.42
					c1.11,0.11,2.24,0.17,3.36,0.17l0.3,0c0,0,0,0,0,0c0.25,0,0.46,0.2,0.46,0.46c0,0.26-0.2,0.47-0.46,0.47L178.23,169.78z
					 M182.25,169.55c-0.23,0-0.43-0.17-0.46-0.41c-0.03-0.26,0.15-0.49,0.41-0.52c1.21-0.14,2.43-0.35,3.62-0.61
					c0.25-0.05,0.5,0.1,0.56,0.35c0.06,0.25-0.1,0.5-0.35,0.56c-1.22,0.27-2.47,0.48-3.71,0.63
					C182.28,169.55,182.27,169.55,182.25,169.55z M171.15,169.04c-0.03,0-0.07,0-0.1-0.01c-0.15-0.03-0.31-0.07-0.46-0.1
					c-1.06-0.24-2.13-0.54-3.18-0.9c-0.24-0.08-0.37-0.35-0.29-0.59c0.08-0.24,0.34-0.37,0.59-0.29c1.02,0.34,2.06,0.63,3.09,0.87
					c0.15,0.03,0.3,0.07,0.45,0.1c0.25,0.05,0.41,0.3,0.36,0.55C171.56,168.89,171.37,169.04,171.15,169.04z M189.49,167.93
					c-0.19,0-0.38-0.12-0.44-0.32c-0.08-0.24,0.05-0.51,0.29-0.59c1.16-0.39,2.31-0.85,3.41-1.36c0.23-0.11,0.51-0.01,0.62,0.23
					c0.11,0.23,0.01,0.51-0.23,0.62c-1.13,0.52-2.31,0.99-3.5,1.39C189.59,167.92,189.54,167.93,189.49,167.93z M164.11,166.69
					c-0.06,0-0.13-0.01-0.19-0.04c-1.13-0.52-2.25-1.11-3.33-1.76c-0.22-0.13-0.29-0.42-0.16-0.64c0.13-0.22,0.42-0.29,0.64-0.16
					c1.05,0.63,2.14,1.2,3.24,1.71c0.23,0.11,0.33,0.38,0.23,0.62C164.46,166.59,164.29,166.69,164.11,166.69z M196.23,164.82
					c-0.16,0-0.31-0.08-0.4-0.23c-0.13-0.22-0.06-0.51,0.16-0.64c0.71-0.43,1.4-0.88,2.07-1.36c0.32-0.23,0.64-0.46,0.96-0.71
					c0.2-0.16,0.5-0.12,0.65,0.08c0.16,0.2,0.12,0.5-0.08,0.65c-0.32,0.25-0.65,0.49-0.98,0.73c-0.69,0.49-1.4,0.96-2.13,1.39
					C196.4,164.8,196.32,164.82,196.23,164.82z M157.74,162.88c-0.1,0-0.2-0.03-0.28-0.09c-1-0.75-1.97-1.57-2.89-2.42
					c-0.19-0.17-0.2-0.47-0.02-0.66c0.17-0.19,0.47-0.2,0.66-0.02c0.89,0.83,1.84,1.62,2.81,2.35c0.21,0.15,0.25,0.45,0.09,0.65
					C158.02,162.81,157.88,162.88,157.74,162.88z M202.1,160.28c-0.12,0-0.24-0.05-0.33-0.14c-0.18-0.18-0.18-0.48,0-0.66
					c0.88-0.88,1.69-1.8,2.4-2.75c0.15-0.21,0.45-0.25,0.65-0.09c0.21,0.15,0.25,0.45,0.09,0.65c-0.74,0.98-1.57,1.94-2.49,2.85
					C202.34,160.24,202.22,160.28,202.1,160.28z M152.31,157.82c-0.13,0-0.26-0.05-0.35-0.16c-0.82-0.95-1.6-1.95-2.31-2.97
					c-0.15-0.21-0.09-0.5,0.12-0.65c0.21-0.15,0.5-0.09,0.65,0.12c0.69,1,1.45,1.97,2.25,2.89c0.17,0.19,0.15,0.49-0.05,0.66
					C152.53,157.78,152.42,157.82,152.31,157.82z M198.98,155.22c-0.01,0-0.03,0-0.04,0c-1.29-0.11-2.55-0.36-3.74-0.75
					c-0.24-0.08-0.38-0.34-0.3-0.59c0.08-0.24,0.34-0.38,0.59-0.3c1.12,0.37,2.31,0.61,3.53,0.71c0.26,0.02,0.45,0.25,0.42,0.5
					C199.42,155.04,199.22,155.22,198.98,155.22z M202.69,155.12c-0.23,0-0.43-0.17-0.46-0.4c-0.03-0.25,0.14-0.49,0.4-0.52
					c1.21-0.17,2.39-0.46,3.5-0.88c0.05-0.02,0.11-0.03,0.16-0.03l0,0c0.41-0.85,0.76-1.73,1.03-2.61c0.04-0.13,0.08-0.26,0.12-0.39
					c0.07-0.25,0.33-0.39,0.57-0.32c0.25,0.07,0.39,0.33,0.32,0.57c-0.04,0.14-0.08,0.28-0.12,0.41c-0.33,1.06-0.76,2.11-1.28,3.13
					c-0.12,0.23-0.4,0.32-0.63,0.2c-0.02-0.01-0.03-0.02-0.04-0.03c-1.12,0.41-2.3,0.7-3.51,0.86
					C202.73,155.12,202.71,155.12,202.69,155.12z M192,152.89c-0.09,0-0.18-0.02-0.26-0.08c-0.93-0.62-1.77-1.34-2.5-2.16
					c-0.12-0.14-0.24-0.28-0.35-0.42c-0.16-0.2-0.13-0.49,0.07-0.65c0.2-0.16,0.49-0.13,0.65,0.07c0.1,0.13,0.21,0.26,0.32,0.38
					c0.67,0.76,1.45,1.43,2.32,2c0.21,0.14,0.27,0.43,0.13,0.64C192.3,152.81,192.15,152.89,192,152.89z M209.62,152.57
					c-0.16,0-0.31-0.08-0.4-0.22c-0.13-0.22-0.07-0.5,0.15-0.64c1-0.62,1.99-1.35,2.91-2.17c0.19-0.17,0.49-0.15,0.66,0.04
					c0.17,0.19,0.15,0.49-0.04,0.66c-0.97,0.86-1.99,1.62-3.04,2.27C209.78,152.55,209.7,152.57,209.62,152.57z M215.18,147.68
					c-0.11,0-0.21-0.04-0.3-0.11c-0.2-0.17-0.22-0.46-0.06-0.66c0.77-0.91,1.5-1.9,2.16-2.95c0.14-0.22,0.42-0.28,0.64-0.14
					c0.22,0.14,0.28,0.43,0.14,0.64c-0.69,1.08-1.44,2.1-2.24,3.04C215.45,147.63,215.31,147.68,215.18,147.68z M208.48,147.22
					c-0.01,0-0.02,0-0.02,0c-0.26-0.01-0.45-0.23-0.44-0.49c0.01-0.28,0.02-0.57,0.02-0.85c0-0.93-0.08-1.85-0.24-2.75
					c-0.05-0.25,0.12-0.49,0.38-0.54c0.25-0.05,0.49,0.12,0.54,0.38c0.17,0.95,0.25,1.93,0.25,2.91c0,0.3-0.01,0.6-0.02,0.9
					C208.93,147.02,208.73,147.22,208.48,147.22z M187.46,147.16c-0.19,0-0.37-0.12-0.44-0.31c-0.43-1.21-0.67-2.48-0.72-3.78
					c-0.01-0.26,0.19-0.47,0.45-0.48c0.23,0,0.47,0.19,0.48,0.45c0.05,1.2,0.27,2.38,0.67,3.5c0.09,0.24-0.04,0.51-0.28,0.59
					C187.57,147.15,187.51,147.16,187.46,147.16z M219.2,141.45c-0.07,0-0.14-0.02-0.2-0.05c-0.23-0.11-0.33-0.39-0.21-0.62
					c0.53-1.09,1.01-2.22,1.43-3.38c0.09-0.24,0.36-0.37,0.6-0.28c0.24,0.09,0.37,0.35,0.28,0.6c-0.43,1.18-0.92,2.35-1.47,3.47
					C219.54,141.35,219.37,141.45,219.2,141.45z M207.17,139.97c-0.18,0-0.35-0.1-0.42-0.27c-0.51-1.11-1.16-2.12-1.93-3
					c-0.17-0.19-0.15-0.49,0.04-0.66c0.19-0.17,0.49-0.15,0.66,0.04c0.83,0.95,1.53,2.04,2.08,3.23c0.11,0.23,0,0.51-0.23,0.62
					C207.3,139.96,207.23,139.97,207.17,139.97z M187.2,139.84c-0.04,0-0.08-0.01-0.13-0.02c-0.25-0.07-0.39-0.33-0.32-0.57
					c0.37-1.3,0.94-2.47,1.7-3.48c0.15-0.2,0.45-0.25,0.65-0.09c0.2,0.15,0.25,0.45,0.09,0.65c-0.69,0.92-1.21,1.98-1.55,3.17
					C187.59,139.71,187.4,139.84,187.2,139.84z M202.29,134.51c-0.08,0-0.16-0.02-0.23-0.06c-1.03-0.59-2.15-1.02-3.33-1.27
					c-0.25-0.05-0.41-0.3-0.36-0.55c0.05-0.25,0.3-0.41,0.55-0.36c1.27,0.27,2.48,0.73,3.59,1.37c0.22,0.13,0.3,0.41,0.17,0.63
					C202.61,134.43,202.45,134.51,202.29,134.51z M221.74,134.47c-0.04,0-0.08,0-0.11-0.01c-0.25-0.06-0.4-0.32-0.34-0.56
					c0.3-1.18,0.54-2.39,0.72-3.6c0.04-0.25,0.27-0.43,0.53-0.39c0.25,0.04,0.43,0.28,0.39,0.53c-0.19,1.24-0.44,2.48-0.74,3.69
					C222.14,134.33,221.95,134.47,221.74,134.47z M191.61,134.1c-0.16,0-0.32-0.09-0.41-0.24c-0.12-0.22-0.04-0.51,0.18-0.63
					c1.12-0.61,2.36-1,3.7-1.16c0.25-0.03,0.49,0.15,0.52,0.41c0.03,0.26-0.15,0.49-0.41,0.52c-1.22,0.14-2.35,0.5-3.36,1.05
					C191.76,134.09,191.68,134.1,191.61,134.1z M222.85,127.13c-0.01,0-0.02,0-0.03,0c-0.26-0.01-0.45-0.23-0.44-0.49
					c0.04-0.72,0.06-1.45,0.06-2.17c0-0.5-0.01-1.01-0.03-1.51c-0.01-0.26,0.19-0.47,0.45-0.48c0.25,0,0.47,0.19,0.48,0.45
					c0.02,0.51,0.03,1.03,0.03,1.54c0,0.73-0.02,1.48-0.06,2.22C223.3,126.93,223.09,127.13,222.85,127.13z M222.57,119.7
					c-0.23,0-0.43-0.17-0.46-0.4c-0.16-1.21-0.38-2.43-0.64-3.62c-0.06-0.25,0.1-0.5,0.35-0.56c0.25-0.06,0.5,0.1,0.56,0.35
					c0.27,1.22,0.5,2.46,0.66,3.7c0.03,0.25-0.15,0.49-0.4,0.52C222.61,119.7,222.59,119.7,222.57,119.7z M220.93,112.46
					c-0.2,0-0.38-0.12-0.44-0.32c-0.37-1.15-0.81-2.31-1.29-3.44c-0.1-0.24,0.01-0.51,0.25-0.61c0.24-0.1,0.51,0.01,0.61,0.25
					c0.49,1.16,0.93,2.34,1.32,3.52c0.08,0.24-0.05,0.51-0.3,0.59C221.03,112.45,220.98,112.46,220.93,112.46z M218.03,105.62
					c-0.17,0-0.33-0.09-0.41-0.25c-0.57-1.07-1.19-2.14-1.85-3.18c-0.14-0.22-0.07-0.5,0.14-0.64c0.22-0.14,0.5-0.07,0.64,0.14
					c0.68,1.06,1.31,2.15,1.89,3.25c0.12,0.23,0.03,0.51-0.19,0.63C218.18,105.6,218.11,105.62,218.03,105.62z M214.04,99.35
					c-0.14,0-0.28-0.06-0.37-0.18c-0.74-0.97-1.52-1.93-2.33-2.85c-0.17-0.19-0.15-0.49,0.04-0.66c0.19-0.17,0.49-0.15,0.66,0.04
					c0.83,0.93,1.63,1.91,2.38,2.9c0.15,0.2,0.11,0.5-0.09,0.65C214.24,99.32,214.14,99.35,214.04,99.35z M209.11,93.79
					c-0.12,0-0.23-0.04-0.32-0.13c-0.88-0.85-1.8-1.68-2.74-2.46c-0.2-0.16-0.23-0.46-0.06-0.65c0.16-0.2,0.46-0.23,0.65-0.06
					c0.96,0.79,1.9,1.64,2.8,2.5c0.18,0.18,0.19,0.47,0.01,0.66C209.35,93.75,209.23,93.79,209.11,93.79z"/><path fill="#ff527c" d="M191.22,96.82l-22.24,20.82c-0.58,0.54-1.52,0.09-1.46-0.71l0.59-7.21c0.04-0.51-0.37-0.95-0.88-0.94
									L160,108.9c-0.79,0.01-1.19-0.96-0.61-1.5l22.24-20.82L191.22,96.82z"/><path fill="#212121" d="M168.39,118.34c-0.2,0-0.4-0.04-0.58-0.13c-0.5-0.24-0.79-0.76-0.75-1.31l0.59-7.21
									c0.01-0.12-0.03-0.22-0.11-0.31c-0.08-0.08-0.2-0.13-0.3-0.13l-7.24,0.12c-0.55,0-1.05-0.32-1.26-0.83
									c-0.21-0.52-0.08-1.09,0.32-1.47l22.24-20.82c0.09-0.08,0.21-0.13,0.33-0.13c0.12,0,0.24,0.06,0.32,0.15l9.59,10.24
									c0.18,0.19,0.17,0.48-0.02,0.66l-22.24,20.82C169.05,118.22,168.72,118.34,168.39,118.34z M167.25,108.31
									c0.37,0,0.72,0.15,0.97,0.42c0.26,0.27,0.39,0.65,0.35,1.02l-0.59,7.21c-0.02,0.26,0.17,0.37,0.23,0.4
									c0.06,0.03,0.26,0.11,0.45-0.07l21.9-20.5l-8.95-9.56l-21.9,20.5c-0.19,0.18-0.12,0.39-0.1,0.45
									c0.02,0.06,0.14,0.25,0.38,0.25l7.24-0.12C167.24,108.31,167.25,108.31,167.25,108.31z"/><path fill="#ff527c" d="M184.57,93.79l-1.1,30.44c-0.03,0.79,0.94,1.21,1.49,0.64l5.05-5.19c0.36-0.37,0.96-0.35,1.29,0.05
									l4.66,5.53c0.51,0.61,1.5,0.27,1.53-0.53l1.1-30.44L184.57,93.79z"/><path fill="#212121" d="M196.62,126.04c-0.38,0-0.76-0.17-1.02-0.48l-4.66-5.53c-0.07-0.09-0.18-0.14-0.29-0.14
									c-0.13,0-0.22,0.04-0.3,0.12l-5.05,5.19c-0.39,0.4-0.97,0.51-1.48,0.3c-0.51-0.22-0.83-0.72-0.81-1.27l1.09-30.44
									c0.01-0.26,0.23-0.46,0.48-0.45l14.02,0.5c0.12,0,0.24,0.06,0.32,0.15s0.13,0.21,0.12,0.33l-1.1,30.44
									c-0.02,0.56-0.37,1.03-0.9,1.21C196.92,126.02,196.77,126.04,196.62,126.04z M190.64,118.96c0.02,0,0.03,0,0.05,0
									c0.38,0.01,0.73,0.19,0.97,0.47l4.66,5.53c0.17,0.2,0.38,0.14,0.44,0.12c0.06-0.02,0.26-0.11,0.27-0.37l1.08-29.98
									l-13.09-0.47l-1.08,29.98c-0.01,0.26,0.19,0.36,0.24,0.39c0.06,0.03,0.27,0.09,0.45-0.09l5.05-5.19
									C189.93,119.1,190.28,118.96,190.64,118.96z"/><g><line x1="179.06" x2="175.04" y1="48.68" y2="43.32" fill="#fff"/><path fill="#212121" d="M179.06,49.14c-0.14,0-0.28-0.06-0.37-0.19l-4.02-5.36c-0.15-0.21-0.11-0.5,0.09-0.65
								c0.21-0.15,0.5-0.11,0.65,0.09l4.02,5.36c0.15,0.21,0.11,0.5-0.09,0.65C179.26,49.11,179.16,49.14,179.06,49.14z"/><line x1="184.2" x2="185.34" y1="48.28" y2="41.68" fill="#fff"/><path fill="#212121" d="M184.2,48.74c-0.03,0-0.05,0-0.08-0.01c-0.25-0.04-0.42-0.28-0.38-0.54l1.14-6.6
								c0.04-0.25,0.29-0.42,0.54-0.38c0.25,0.04,0.42,0.28,0.38,0.54l-1.14,6.6C184.62,48.58,184.42,48.74,184.2,48.74z"/><g><line x1="176.43" x2="169.83" y1="52.55" y2="51.41" fill="#fff"/><path fill="#212121" d="M176.43,53.01c-0.03,0-0.05,0-0.08-0.01l-6.6-1.14c-0.25-0.04-0.42-0.28-0.38-0.54
								c0.04-0.25,0.29-0.42,0.54-0.38l6.6,1.14c0.25,0.04,0.42,0.28,0.38,0.54C176.85,52.85,176.65,53.01,176.43,53.01z"/></g></g><g><path fill="#ffcf3d" d="M212.96,97.82c-1.86,1.32-5.32-0.34-7.44,0.45c-2.12,0.79-3.64,4.32-5.91,4.55
								c-2.24,0.22-4.41-2.94-6.67-3.32c-2.19-0.37-5.27,1.93-7.39,0.97c-2.12-0.96-2.41-4.8-4.12-6.21
								c-1.78-1.46-5.58-1.02-6.89-2.85c-1.32-1.86,0.34-5.32-0.45-7.44c-0.79-2.12-4.32-3.64-4.55-5.91
								c-0.22-2.24,2.94-4.41,3.32-6.67c0.37-2.19-1.93-5.27-0.97-7.39c0.96-2.12,4.8-2.41,6.21-4.12c1.46-1.78,1.02-5.58,2.85-6.89
								c1.86-1.32,5.32,0.34,7.44-0.45c2.12-0.79,3.64-4.32,5.91-4.55c2.24-0.22,4.41,2.94,6.67,3.32c2.19,0.37,5.27-1.93,7.39-0.97
								c2.12,0.96,2.41,4.8,4.12,6.21c1.78,1.46,5.58,1.02,6.89,2.85c1.32,1.86-0.34,5.32,0.45,7.44c0.79,2.12,4.32,3.64,4.55,5.91
								c0.22,2.24-2.94,4.41-3.32,6.67c-0.37,2.19,1.93,5.27,0.97,7.39s-4.8,2.41-6.21,4.12C214.35,92.71,214.79,96.52,212.96,97.82
								z"/><path fill="#212121" d="M199.39,103.3c-1.3,0-2.51-0.89-3.68-1.76c-0.95-0.7-1.93-1.42-2.85-1.58c-0.86-0.15-1.94,0.2-3.08,0.56
								c-1.52,0.48-3.09,0.98-4.42,0.38c-1.34-0.61-1.99-2.12-2.62-3.58c-0.47-1.1-0.92-2.13-1.6-2.69
								c-0.72-0.59-1.91-0.86-3.06-1.11c-1.52-0.34-3.1-0.69-3.91-1.83c-0.83-1.17-0.64-2.78-0.46-4.34
								c0.13-1.16,0.27-2.35-0.05-3.21c-0.32-0.85-1.21-1.66-2.07-2.45c-1.16-1.06-2.36-2.16-2.51-3.58
								c-0.13-1.4,0.82-2.7,1.75-3.95c0.7-0.95,1.42-1.93,1.58-2.85c0.15-0.86-0.2-1.94-0.56-3.08c-0.48-1.52-0.98-3.09-0.38-4.42
								c0.61-1.34,2.12-1.99,3.58-2.62c1.1-0.47,2.13-0.92,2.69-1.6c0.59-0.72,0.86-1.91,1.11-3.06c0.34-1.52,0.69-3.1,1.83-3.91
								c1.17-0.83,2.78-0.64,4.34-0.46c1.16,0.13,2.35,0.27,3.21-0.05c0.85-0.32,1.66-1.21,2.45-2.07c1.06-1.16,2.16-2.36,3.58-2.51
								c1.4-0.13,2.7,0.82,3.95,1.75c0.95,0.7,1.93,1.42,2.85,1.58c0.87,0.15,1.94-0.2,3.08-0.56c1.52-0.48,3.09-0.98,4.42-0.38
								c1.34,0.61,1.99,2.12,2.62,3.58c0.47,1.1,0.92,2.13,1.6,2.69c0.72,0.59,1.91,0.86,3.06,1.11c1.52,0.34,3.1,0.69,3.91,1.83
								c0.83,1.17,0.64,2.78,0.46,4.34c-0.13,1.16-0.27,2.35,0.05,3.21c0.32,0.85,1.21,1.66,2.07,2.45
								c1.16,1.06,2.36,2.16,2.51,3.58c0.13,1.4-0.82,2.7-1.75,3.95c-0.7,0.95-1.42,1.93-1.58,2.85c-0.15,0.86,0.2,1.94,0.56,3.08
								c0.48,1.52,0.98,3.09,0.38,4.42c-0.61,1.34-2.12,1.99-3.58,2.62c-1.1,0.47-2.13,0.92-2.69,1.6
								c-0.59,0.72-0.86,1.91-1.11,3.06c-0.34,1.52-0.69,3.1-1.83,3.91c0,0,0,0,0,0c-1.16,0.82-2.78,0.64-4.34,0.46
								c-1.16-0.13-2.35-0.27-3.21,0.05c-0.85,0.32-1.66,1.21-2.45,2.07c-1.06,1.16-2.16,2.36-3.58,2.51
								C199.56,103.29,199.47,103.3,199.39,103.3z M192.43,99c0.2,0,0.39,0.01,0.58,0.05c1.14,0.19,2.21,0.98,3.25,1.75
								c1.16,0.86,2.25,1.67,3.31,1.57c1.06-0.11,2-1.13,2.98-2.21c0.86-0.94,1.75-1.92,2.81-2.31c1.06-0.4,2.37-0.25,3.64-0.1
								c1.45,0.17,2.82,0.32,3.7-0.29c0.85-0.61,1.15-1.94,1.46-3.36c0.28-1.26,0.57-2.55,1.3-3.45c0.7-0.85,1.89-1.37,3.04-1.86
								c1.3-0.56,2.65-1.14,3.11-2.15c0.46-1.01,0.02-2.41-0.42-3.76c-0.38-1.19-0.77-2.43-0.59-3.52c0.19-1.14,0.98-2.21,1.75-3.25
								c0.86-1.16,1.67-2.26,1.57-3.31c-0.11-1.06-1.13-2-2.21-2.98c-0.94-0.86-1.92-1.75-2.31-2.81c-0.4-1.06-0.25-2.37-0.1-3.64
								c0.17-1.45,0.32-2.83-0.3-3.7c-0.61-0.85-1.94-1.15-3.36-1.46c-1.26-0.28-2.55-0.57-3.45-1.3c-0.85-0.7-1.37-1.89-1.86-3.04
								c-0.56-1.3-1.14-2.65-2.15-3.11c-1.01-0.46-2.41-0.01-3.76,0.42c-1.19,0.38-2.43,0.77-3.52,0.59
								c-1.14-0.19-2.21-0.98-3.25-1.75c-1.16-0.86-2.25-1.68-3.31-1.57c-1.06,0.11-2,1.13-2.98,2.21
								c-0.86,0.94-1.75,1.92-2.81,2.31c-1.06,0.4-2.37,0.25-3.64,0.1c-1.45-0.17-2.82-0.33-3.7,0.29
								c-0.85,0.61-1.15,1.94-1.46,3.36c-0.28,1.26-0.57,2.55-1.3,3.45c-0.7,0.85-1.89,1.37-3.04,1.86
								c-1.3,0.56-2.65,1.14-3.11,2.15c-0.46,1.01-0.01,2.41,0.42,3.76c0.38,1.19,0.77,2.43,0.59,3.52
								c-0.19,1.14-0.98,2.21-1.75,3.25c-0.86,1.16-1.67,2.26-1.57,3.31c0.11,1.06,1.13,2,2.21,2.98c0.94,0.86,1.92,1.75,2.31,2.81
								c0.4,1.06,0.25,2.37,0.1,3.64c-0.17,1.45-0.32,2.82,0.3,3.7c0.61,0.85,1.94,1.15,3.36,1.46c1.26,0.28,2.55,0.57,3.45,1.3
								c0.85,0.7,1.37,1.89,1.86,3.04c0.56,1.3,1.14,2.65,2.15,3.11c1.01,0.46,2.41,0.01,3.76-0.42
								C190.48,99.32,191.49,99,192.43,99z M212.96,97.82L212.96,97.82L212.96,97.82z"/></g><g><circle cx="196.95" cy="75.4" r="16.51" fill="#fff" transform="rotate(-25.53 196.939 75.4)"/></g><g><path fill="#212121" d="M189.54,82.1c-0.29-0.13-0.48-0.33-0.59-0.61c-0.1-0.28-0.09-0.56,0.04-0.85
							c0.13-0.29,0.34-0.49,0.62-0.6c0.28-0.11,0.57-0.1,0.85,0.03l2.84,1.29l5.5-12.11l-2.98,0.09c-0.09,0-0.19-0.01-0.28-0.01
							c-0.09,0-0.21-0.04-0.33-0.09c-0.3-0.14-0.51-0.35-0.61-0.62c-0.1-0.28-0.09-0.57,0.05-0.87c0.2-0.45,0.56-0.68,1.07-0.7
							l4.02-0.22c0.27-0.01,0.52,0.04,0.75,0.14l0.5,0.23c0.32,0.14,0.54,0.38,0.66,0.7c0.12,0.32,0.11,0.65-0.03,0.96l-6.13,13.5
							l2.37,1.07c0.29,0.13,0.48,0.34,0.59,0.63c0.11,0.29,0.1,0.58-0.03,0.86c-0.13,0.29-0.34,0.48-0.62,0.58
							c-0.29,0.1-0.57,0.09-0.86-0.04L189.54,82.1z"/></g><g><path fill="#70bbff" d="M154.69,150.33l-11.62,33.26l-10.06,0.7l-34.95,2.44l-15.29,1.06l-7.01-40.47l19.82-32.39l1.66-2.71
									c0.01-0.02,0.01-0.02,0.01-0.02c0.02,0,0.05-0.01,0.05-0.01h-0.03c0.02-0.01,0.05-0.01,0.05-0.01
									c10.53-1.53,21.76-1.7,32.3-0.18c0.01,0,0.02,0,0.04,0.01c0.02,0,0.05,0.01,0.07,0.01h-0.04l2.51,3.85L154.69,150.33z"/><path fill="#70bbff" d="M158.46,191.53c0,8.68-4.32,22.44-4.32,22.44H79.85c-11.14-12.82-12.56-39.4-12.56-39.4
									S158.46,182.85,158.46,191.53z"/><path fill="#212121" d="M154.13,214.43H79.85c-0.13,0-0.26-0.06-0.35-0.16c-11.11-12.79-12.65-39.41-12.67-39.68
									c-0.01-0.13,0.04-0.27,0.14-0.36c0.1-0.09,0.23-0.14,0.36-0.13c0.23,0.02,23.06,2.11,45.6,5.23
									c13.25,1.83,23.81,3.66,31.38,5.43c13.09,3.06,14.6,5.33,14.6,6.77c0,8.65-4.3,22.44-4.35,22.58
									C154.52,214.3,154.34,214.43,154.13,214.43z M80.06,213.5h73.73c0.65-2.13,4.2-14.2,4.2-21.97c0-1.51-4.4-5.63-45.18-11.28
									c-20.59-2.85-41.43-4.84-45.02-5.17C68.07,178.89,70.14,201.9,80.06,213.5z"/><path fill="#70bbff" d="M137.89,202.68c-7.23,0-15.26-1.78-22.39-4.17c-6.25-2.09-11.8-4.65-15.54-6.92
										c-1.1-0.67-1.72-2.6-1.91-4.87c-0.2-2.37,0.07-5.11,0.75-7.14c0.61-1.83,1.55-3.08,2.77-2.95
										c4.57,0.5,9.23,0.84,13.94,1.22c5.52,0.44,11.11,0.91,16.7,1.73c1.31,0.19,2.62,0.4,3.93,0.64
										c1.71,0.31,3.41-0.59,4.09-2.2c2.22-5.24,6.76-16.98,6.88-25.9l-15.19-34.99l-2.22-5.12c0,0,1.09,0.23,2.92,0.8
										c8.95,2.77,35.5,13.56,37.72,44.39C171.36,171.31,163.31,202.68,137.89,202.68z"/><path fill="#212121" d="M137.89,203.15c-12.8,0-29.22-5.75-38.17-11.15c-2.66-1.61-2.65-8.76-1.34-12.61
										c0.75-2.21,1.89-3.36,3.24-3.21c3.96,0.43,8.07,0.76,12.04,1.07c7.38,0.58,15,1.17,22.56,2.52
										c1.51,0.27,2.99-0.52,3.58-1.92c2.01-4.75,6.71-16.77,6.84-25.72c0-0.25,0.21-0.46,0.46-0.46c0,0,0,0,0.01,0
										c0.26,0,0.46,0.21,0.46,0.47c-0.13,9.12-4.88,21.27-6.91,26.07c-0.77,1.8-2.65,2.82-4.6,2.47
										c-7.51-1.34-15.11-1.94-22.47-2.51c-3.98-0.31-8.1-0.63-12.07-1.07c-1.16-0.12-1.91,1.56-2.25,2.58
										c-1.29,3.8-1.05,10.31,0.94,11.52c7.05,4.26,23.52,11.02,37.69,11.02c7.75,0,14.43-2.95,19.85-8.78
										c9.97-10.72,12.74-27.89,12.14-36.2c-1.37-18.98-12.22-30.13-21.09-36.15c-9.64-6.54-19.09-8.6-19.18-8.62
										c-0.25-0.05-0.41-0.3-0.36-0.55c0.05-0.25,0.3-0.41,0.55-0.36c0.1,0.02,9.7,2.11,19.48,8.74
										c9.05,6.13,20.13,17.5,21.53,36.87c0.61,8.46-2.22,25.97-12.39,36.9C152.81,200.1,145.91,203.15,137.89,203.15z"/><path fill="#fff" d="M157.68,180.76c2.9,2.16,1.86,5.53-2.46,3c2.17,1.32,2.1,6.18-2.57,3.16
											c-1.41-0.91-2.98-1.24-4.49-1.25c-1.93-0.01-3.77,0.75-5.22,2.01c-1.81,1.59-5.78,3.67-12.9,1.3l-0.6-10.55
											c0,0,3.91,0.23,7.41-2.67c3.51-2.9,10.62-5.41,18.03-5.41c7.41,0,7.61,4.41,1.2,4.67c-6.41,0.27-7.48,0.87-7.48,0.87
											s5.98-1.04,10.38,1.31C163.22,179.48,162.06,183.7,157.68,180.76z"/><path fill="#212121" d="M157.86,185.12c-0.83,0-1.93-0.34-3.32-1.24c-2.62-1.69-5.84-1.24-8.08-0.58
										c-0.25,0.07-0.51-0.07-0.58-0.31c-0.07-0.25,0.07-0.51,0.31-0.58c2.43-0.72,5.93-1.19,8.85,0.69c2,1.29,3.29,1.3,3.67,0.74
										c0.38-0.56-0.01-1.76-1.32-2.72c-0.21-0.15-0.25-0.44-0.1-0.65c0.15-0.21,0.44-0.25,0.65-0.1c1.62,1.2,2.28,2.92,1.54,4
										C159.18,184.81,158.64,185.12,157.86,185.12z"/><path fill="#212121" d="M136.01,190.53c-1.73,0-3.75-0.31-6.11-1.09c-0.18-0.06-0.31-0.22-0.32-0.41l-0.6-10.55
										c-0.01-0.13,0.04-0.26,0.14-0.36c0.09-0.09,0.22-0.15,0.36-0.14c0.04,0,3.78,0.18,7.09-2.57
										c3.92-3.25,11.46-5.52,18.33-5.52c4.29,0,6.23,1.43,6.26,2.84c0.03,1.27-1.52,2.62-5.04,2.76
										c-0.23,0.01-0.46,0.02-0.68,0.03c1.27,0.24,2.58,0.64,3.78,1.28c1.78,0.95,2.91,2.41,2.88,3.73
										c-0.02,0.68-0.35,1.22-0.92,1.5c-0.6,0.29-1.97,0.5-4.37-1.34c-4.03-3.1-10.45-0.81-10.51-0.78
										c-0.24,0.09-0.51-0.04-0.6-0.28c-0.09-0.24,0.04-0.51,0.28-0.6c0.28-0.1,6.97-2.49,11.39,0.92c1.69,1.3,2.86,1.49,3.4,1.24
										c0.31-0.15,0.39-0.45,0.39-0.68c0.02-0.79-0.71-1.99-2.39-2.89c-4.21-2.25-10.03-1.28-10.09-1.27
										c-0.23,0.04-0.44-0.09-0.52-0.3c-0.08-0.21,0.01-0.45,0.21-0.56c0.12-0.07,1.35-0.66,7.69-0.93
										c2.72-0.11,4.17-1.02,4.15-1.81c-0.02-0.75-1.48-1.93-5.33-1.93c-7.79,0-14.65,2.75-17.73,5.3c-2.89,2.39-6,2.74-7.22,2.78
										l0.56,9.74c6.79,2.17,10.52,0.12,12.15-1.3c1.58-1.39,3.53-2.14,5.53-2.13c1.8,0.01,3.4,0.46,4.74,1.32
										c1.22,0.78,2.23,1.07,2.77,0.79c0.39-0.2,0.46-0.67,0.47-0.94c0.02-0.72-0.37-1.75-1.15-2.23
										c-0.22-0.13-0.29-0.42-0.15-0.64c0.13-0.22,0.42-0.29,0.64-0.15c0.98,0.6,1.64,1.86,1.6,3.05
										c-0.03,0.79-0.38,1.42-0.97,1.73c-0.61,0.32-1.74,0.43-3.7-0.83c-1.19-0.77-2.62-1.16-4.24-1.17c-0.01,0-0.03,0-0.04,0
										c-1.74,0-3.46,0.67-4.87,1.9C142.02,189.12,139.71,190.53,136.01,190.53z"/><path fill="#70bbff" d="M131.04,191.6c-3.73,2.26-9.3,4.83-15.54,6.92c-7.13,2.39-15.16,4.17-22.39,4.17
										c-25.42,0-32.46-31.34-32.46-45.48c0-32.81,24.54-42.06,33.42-44.34c1.71-0.44,2.84-0.62,3.1-0.65
										c0.01-0.01,0.02-0.01,0.02-0.01c0.02-0.01,0.04-0.01,0.04-0.01s-0.01,0.01-0.01,0.02c-0.07,0.17-0.58,1.29-1.37,3.09
										c-3.43,7.9-12.09,28.66-11.97,36.81c0.12,8.92,4.66,20.66,6.88,25.9c0.68,1.6,2.38,2.51,4.09,2.2
										c1.31-0.23,2.62-0.45,3.93-0.64c5.59-0.82,11.18-1.29,16.71-1.73c4.71-0.37,9.37-0.72,13.94-1.22
										c1.22-0.13,2.16,1.12,2.76,2.95c0.45,1.35,0.72,3.03,0.8,4.7C133.14,187.5,132.53,190.7,131.04,191.6z"/><path fill="#212121" d="M93.11,203.15c-11.17,0-20.22-6.12-26.17-17.69c-4.98-9.69-6.75-21.27-6.75-28.25
										c0-20.9,10.06-32.15,18.5-37.91c9.13-6.23,18.4-7.54,18.49-7.55c0.25-0.04,0.49,0.14,0.52,0.4
										c0.03,0.25-0.14,0.49-0.4,0.52c-0.09,0.01-9.17,1.3-18.13,7.42c-8.24,5.63-18.06,16.64-18.06,37.12
										c0,11.68,5.88,45.01,31.99,45.01c14.17,0,30.64-6.76,37.69-11.02c1.99-1.2,2.23-7.72,0.94-11.52
										c-0.34-1.02-1.09-2.7-2.25-2.58c-3.97,0.44-8.09,0.76-12.07,1.07c-7.35,0.58-14.96,1.17-22.47,2.51
										c-1.95,0.35-3.84-0.67-4.6-2.47c-2.04-4.8-6.79-16.95-6.91-26.07c0-0.26,0.2-0.47,0.46-0.47c0,0,0,0,0.01,0
										c0.25,0,0.46,0.2,0.46,0.46c0.13,8.95,4.83,20.97,6.84,25.72c0.59,1.4,2.07,2.19,3.58,1.92
										c7.56-1.35,15.18-1.95,22.56-2.52c3.98-0.31,8.09-0.63,12.04-1.07c1.34-0.15,2.49,0.99,3.24,3.21
										c1.3,3.85,1.32,11.01-1.34,12.61C122.34,197.4,105.92,203.15,93.11,203.15z"/><g><path fill="#fff" d="M102.63,169.88l-2.05,9.45c-1.9,0.26-3.81,0.55-5.71,0.89c-0.3,0.06-0.59,0.07-0.88,0.06
											c-3.25-0.59-5.13-2.14-6.14-3.35c-1.24-1.48-2.94-2.52-4.84-2.8c-1.48-0.22-3.08-0.14-4.62,0.53
											c-5.05,2.23-4.42-2.47-2.11-3.49c-4.61,1.77-5.1-1.73-1.89-3.38c-4.8,2.24-5.29-2.11-0.76-3.7
											c4.72-1.64,10.46,0.31,10.46,0.31s-0.87-1.84-7.27-2.21c-6.88-0.4-4.59-5.56,2.74-4.4c7.32,1.15,13.14,4.9,16.16,8.31
											C98.73,169.51,102.63,169.88,102.63,169.88z"/><path fill="#212121" d="M74.06,172.11c-1.09,0-1.75-0.45-2.03-1.03c-0.57-1.19,0.35-2.78,2.14-3.71
										c0.23-0.12,0.51-0.03,0.63,0.2c0.12,0.23,0.03,0.51-0.2,0.63c-1.44,0.75-2.02,1.88-1.73,2.48c0.29,0.61,1.57,0.8,3.74-0.16
										c3.17-1.4,6.56-0.4,8.84,0.69c0.23,0.11,0.33,0.39,0.22,0.62c-0.11,0.23-0.39,0.33-0.62,0.22
										c-2.11-1.01-5.22-1.94-8.07-0.68C75.78,171.89,74.82,172.11,74.06,172.11z"/><path fill="#212121" d="M94.19,180.75c-0.07,0-0.14,0-0.21,0c-0.02,0-0.04,0-0.07-0.01c-3.4-0.62-5.36-2.25-6.42-3.51
										c-1.2-1.44-2.82-2.38-4.55-2.64c-1.6-0.24-3.07-0.07-4.36,0.5c-2.14,0.94-3.24,0.65-3.79,0.25
										c-0.53-0.39-0.78-1.07-0.68-1.86c0.15-1.19,0.99-2.33,2.05-2.77c0.24-0.1,0.51,0.01,0.61,0.25
										c0.1,0.24-0.01,0.51-0.25,0.61c-0.85,0.35-1.4,1.31-1.49,2.02c-0.03,0.26-0.03,0.74,0.32,1c0.49,0.37,1.54,0.24,2.86-0.35
										c1.46-0.64,3.1-0.84,4.88-0.57c1.96,0.3,3.78,1.35,5.13,2.97c0.95,1.14,2.73,2.61,5.84,3.18c0.28,0.01,0.51-0.01,0.74-0.05
										c1.68-0.3,3.45-0.58,5.41-0.85l1.88-8.65c-1.19-0.23-4.22-1.06-6.7-3.87c-2.82-3.18-8.47-7-15.88-8.16
										c-3.2-0.51-5.42,0.27-6.12,1.2c-0.24,0.32-0.29,0.62-0.16,0.92c0.27,0.58,1.36,1.24,3.64,1.37
										c6.49,0.37,7.56,2.27,7.66,2.48c0.08,0.17,0.05,0.37-0.07,0.51c-0.12,0.14-0.32,0.19-0.5,0.13
										c-0.06-0.02-5.65-1.88-10.16-0.31c-1.79,0.63-2.7,1.7-2.81,2.49c-0.03,0.23-0.01,0.54,0.28,0.73
										c0.49,0.33,1.67,0.33,3.54-0.7c4.91-2.69,11.14,0.71,11.4,0.86c0.22,0.12,0.31,0.41,0.18,0.63
										c-0.12,0.22-0.41,0.31-0.63,0.18c-0.06-0.03-6.04-3.29-10.5-0.86c-2.64,1.45-3.96,1.03-4.52,0.65
										c-0.52-0.36-0.77-0.95-0.68-1.62c0.17-1.3,1.52-2.58,3.43-3.24c2.42-0.84,5.06-0.78,7.13-0.5c-0.96-0.22-2.2-0.41-3.81-0.5
										c-2.35-0.14-3.92-0.81-4.43-1.91c-0.28-0.61-0.19-1.27,0.26-1.87c0.83-1.1,3.16-2.16,7.01-1.55
										c7.66,1.2,13.51,5.16,16.44,8.46c2.85,3.23,6.57,3.64,6.61,3.64c0.13,0.01,0.25,0.08,0.33,0.19
										c0.08,0.11,0.11,0.24,0.08,0.37l-2.05,9.45c-0.04,0.19-0.2,0.34-0.39,0.36c-2.08,0.28-3.94,0.57-5.69,0.89
										C94.71,180.73,94.46,180.75,94.19,180.75z"/><path fill="#70bbff" d="M135.55,176.71c-1.42,0.88-2.82,1.31-3.92,1.52c-0.58-1.06-1.31-1.69-2.19-1.59
											c-10.24,1.12-20.9,1.45-31.56,3.09c-0.43-4.63,2.11-12.42,5.03-11.63C113.48,170.98,124.66,173.02,135.55,176.71z"/><path fill="#212121" d="M97.88,180.2c-0.1,0-0.2-0.03-0.29-0.1c-0.1-0.08-0.16-0.2-0.18-0.32
											c-0.34-3.62,1.13-9.57,3.47-11.53c0.87-0.73,1.65-0.72,2.15-0.59c3.82,1.04,7.81,1.99,11.67,2.91
											c6.9,1.64,14.03,3.35,21,5.7c0.17,0.06,0.29,0.21,0.31,0.39c0.02,0.18-0.06,0.35-0.22,0.45
											c-1.25,0.77-2.62,1.31-4.07,1.59c-0.2,0.04-0.4-0.06-0.5-0.23c-0.53-0.97-1.11-1.42-1.73-1.35
											c-3.97,0.44-8.08,0.76-12.06,1.07c-6.37,0.5-12.97,1.02-19.49,2.02C97.92,180.2,97.9,180.2,97.88,180.2z M102.49,168.51
											c-0.33,0-0.66,0.15-1.01,0.44c-1.82,1.53-3.35,6.56-3.18,10.24c6.39-0.96,12.83-1.47,19.06-1.95
											c3.97-0.31,8.07-0.63,12.02-1.07c0.66-0.08,1.61,0.14,2.48,1.53c0.88-0.2,1.73-0.5,2.54-0.89
											c-6.61-2.17-13.37-3.78-19.92-5.35c-3.86-0.92-7.86-1.87-11.7-2.92C102.69,168.53,102.59,168.51,102.49,168.51z"/></g><g><path fill="#212121" d="M189.02,214.35H59.57c-0.26,0-0.46-0.21-0.46-0.46c0-0.26,0.21-0.46,0.46-0.46h129.45
								c0.26,0,0.46,0.21,0.46,0.46C189.49,214.14,189.28,214.35,189.02,214.35z"/></g><g><path fill="#212121" d="M82.74,90.31c-0.26,0-0.46-0.21-0.46-0.46V72c0-0.26,0.21-0.46,0.46-0.46c0.26,0,0.46,0.21,0.46,0.46
						v17.85C83.2,90.11,82.99,90.31,82.74,90.31z"/><path fill="#212121" d="M150.72,52.17L67.14,69.28l-0.59-2l-0.01-0.03h0.01c-0.16-0.54-0.01-1.17,0.51-1.56l38.03-28.92
							c0.94-0.72,2.18-0.93,3.3-0.57l40.83,13.08c0.55,0.18,0.89,0.62,0.98,1.11l0.01-0.01L150.72,52.17z"/><path fill="#212121" d="M67.14,69.75c-0.2,0-0.39-0.13-0.45-0.33l-0.59-2c-0.01-0.02-0.01-0.04-0.01-0.05
							c-0.22-0.76,0.05-1.56,0.68-2.04L104.8,36.4c1.06-0.81,2.45-1.05,3.73-0.64l40.83,13.08c0.64,0.2,1.12,0.73,1.28,1.37
							c0.01,0.01,0.01,0.03,0.01,0.04l0.53,1.78c0.04,0.13,0.02,0.26-0.05,0.37c-0.07,0.11-0.18,0.19-0.31,0.22L67.23,69.74
							C67.2,69.74,67.17,69.75,67.14,69.75z M67,67.17l0.47,1.57l82.67-16.92l-0.36-1.22c-0.02-0.04-0.03-0.08-0.04-0.13
							c-0.06-0.36-0.31-0.64-0.66-0.75l-40.83-13.08c-0.99-0.31-2.06-0.13-2.88,0.5L67.33,66.07c-0.33,0.25-0.46,0.66-0.35,1.05
							C66.99,67.14,66.99,67.15,67,67.17z"/><path fill="#fff" d="M150.26,53.88L112.23,82.8c-0.94,0.72-2.18,0.93-3.31,0.57L68.1,70.29c-1.12-0.36-1.37-1.83-0.44-2.54
								l38.03-28.92c0.94-0.72,2.18-0.93,3.31-0.57l40.83,13.08C150.94,51.7,151.19,53.17,150.26,53.88z"/><path fill="#212121" d="M110.03,84.01c-0.42,0-0.84-0.06-1.25-0.19L67.96,70.74c-0.68-0.22-1.18-0.79-1.3-1.5
								c-0.12-0.71,0.16-1.42,0.73-1.85l38.03-28.92c1.06-0.81,2.46-1.05,3.73-0.64l40.83,13.08c0.68,0.22,1.18,0.79,1.3,1.5
								c0.12,0.71-0.16,1.42-0.73,1.85l-38.03,28.92C111.79,83.72,110.91,84.01,110.03,84.01z M107.89,38.55
								c-0.68,0-1.36,0.22-1.92,0.65L67.94,68.12c-0.3,0.23-0.44,0.58-0.38,0.95c0.06,0.37,0.31,0.66,0.67,0.77l40.83,13.08
								c0.98,0.31,2.06,0.13,2.88-0.49l38.03-28.92l0,0c0.3-0.23,0.44-0.58,0.38-0.95c-0.06-0.37-0.31-0.66-0.67-0.77l-40.83-13.08
								C108.54,38.6,108.21,38.55,107.89,38.55z"/><path fill="#212121" d="M132.11,73.57c0,0,0-1.41-0.28-2.79c-1.52-6.13-2.32-17.35-18.39-17.35S90.33,68.05,90.33,79.14
						s7.36,21,24.47,21L132.11,73.57z"/><path fill="#212121" d="M114.8,100.6c-18.38,0-24.93-11.09-24.93-21.46c0-10.12,6.4-26.18,23.58-26.18
						c14.94,0,17.03,9.55,18.42,15.87c0.14,0.65,0.28,1.26,0.42,1.83c0.29,1.42,0.29,2.84,0.29,2.9c0,0.09-0.03,0.18-0.08,0.25
						l-17.31,26.57C115.1,100.52,114.96,100.6,114.8,100.6z M113.45,53.89c-16.5,0-22.65,15.49-22.65,25.25
						c0,9.88,6.25,20.43,23.75,20.53l17.1-26.24c-0.01-0.38-0.05-1.49-0.27-2.56c-0.14-0.56-0.28-1.18-0.42-1.84
						C129.56,62.64,127.64,53.89,113.45,53.89z"/><path fill="#212121" d="M132.62,112.82c-0.07,1.07-0.21,2.09-0.41,3.06c-0.08,0.43-0.18,0.85-0.29,1.26
						c-1.83,6.9-6.73,10.88-13.73,10.88c0,0,0,0-0.01,0c-7.69,0-16.29-4.93-22.32-12.69c-0.1-0.12-0.2-0.25-0.3-0.38
						c-0.26-0.33-0.5-0.68-0.75-1.02l-0.74-1.05c1.71-0.44,2.84-0.62,3.1-0.65c0.01-0.01,0.02-0.01,0.02-0.01
						c0.02-0.01,0.04-0.01,0.04-0.01c0.01,0,0.02,0,0.02-0.01c0.02-0.01,0.05-0.01,0.05-0.01c10.53-1.53,21.76-1.7,32.3-0.18
						c0.01,0,0.02,0,0.04,0.01c0.02,0,0.05,0.01,0.07,0.01h-0.04C129.7,112.02,130.79,112.25,132.62,112.82z"/><path fill="#212121" d="M118.19,128.48c-7.83,0-16.52-4.93-22.69-12.87c-0.11-0.14-0.21-0.26-0.31-0.39
						c-0.25-0.33-0.5-0.68-0.75-1.03l-0.74-1.05c-0.09-0.13-0.11-0.29-0.06-0.43c0.05-0.14,0.17-0.25,0.32-0.29
						c1.78-0.46,2.92-0.63,3.13-0.66c0.02-0.01,0.04-0.01,0.06-0.01c0.04-0.01,0.08-0.01,0.11-0.02
						c10.98-1.59,22.19-1.65,32.41-0.18v0c0.01,0,0.01,0,0.02,0c0.02,0,0.03,0,0.05,0c0.07,0,0.14,0.02,0.2,0.04
						c0.37,0.08,1.35,0.32,2.8,0.77c0.21,0.06,0.34,0.26,0.33,0.48c-0.07,1.05-0.21,2.1-0.42,3.12c-0.07,0.39-0.17,0.8-0.3,1.29
						C130.48,124.39,125.31,128.48,118.19,128.48z M94.86,113.16l0.35,0.5c0.24,0.34,0.49,0.68,0.74,1.01
						c0.09,0.13,0.18,0.24,0.27,0.35c6.02,7.75,14.43,12.54,21.97,12.54c6.77,0,11.48-3.74,13.28-10.53
						c0.12-0.47,0.21-0.86,0.28-1.23c0.18-0.87,0.3-1.75,0.38-2.63c-1.48-0.44-2.4-0.65-2.51-0.67c-0.02,0-0.03,0-0.04-0.01
						c-0.01,0-0.01,0-0.02,0c-10.15-1.46-21.27-1.39-32.17,0.18c0,0-0.01,0-0.01,0c-0.02,0.01-0.05,0.01-0.07,0.01
						c-0.02,0-0.04,0.01-0.05,0.01C97.21,112.68,96.32,112.81,94.86,113.16z"/><g><path fill="#fff" d="M129.7,112.02c-4.52-1.1-8.81-3.47-10.11-7.82c-0.58-1.94-0.66-3.18-0.61-5.16l-14.44-11.05
						c0.18,4.76-0.19,11.51-1.25,15.4c-1.49,5.45-6.01,8.78-6.04,8.81C107.89,127.26,128.68,131.35,129.7,112.02z"/><path fill="#212121" d="M118.19,125.51c-7.12,0-15.7-5.09-21.32-13.04c-0.12-0.17-0.11-0.41,0.03-0.57
						c0.02-0.02,0.07-0.07,0.1-0.09c0.75-0.58,4.53-3.74,5.84-8.54c1.04-3.81,1.41-10.56,1.24-15.26c-0.01-0.18,0.09-0.35,0.25-0.43
						c0.16-0.08,0.35-0.07,0.5,0.04l14.44,11.05c0.12,0.09,0.19,0.23,0.18,0.38c-0.05,1.95,0.03,3.14,0.59,5.01
						c1.37,4.56,6.07,6.6,9.78,7.5c0.22,0.05,0.37,0.25,0.35,0.48c-0.36,6.92-3.34,11.53-8.37,12.98
						C120.65,125.36,119.44,125.51,118.19,125.51z M97.88,112.29c6.41,8.83,16.52,13.9,23.65,11.84c4.6-1.33,7.25-5.39,7.68-11.76
						c-3.88-1.01-8.62-3.22-10.07-8.04c-0.57-1.91-0.67-3.19-0.63-5.07l-13.48-10.31c0.09,4.57-0.26,10.76-1.3,14.56
						C102.48,108.11,99.1,111.27,97.88,112.29z"/></g><g><path fill="#fff" d="M129.97,68.5c3.45,7.13,5.34,15.01,5.51,22.93c0.06,2.71-0.12,5.55-1.52,7.86
								c-2.25,3.73-7.23,5.11-11.51,4.27c-4.28-0.84-7.97-3.47-11.32-6.26C84.01,83.67,115.42,45.65,129.97,68.5z"/><path fill="#212121" d="M124.87,104.25c-0.88,0-1.73-0.08-2.52-0.24c-2.88-0.57-5.71-1.93-8.93-4.3
								c-0.21-0.15-0.25-0.44-0.1-0.65c0.15-0.21,0.44-0.25,0.65-0.1c3.1,2.29,5.82,3.6,8.55,4.14c3.69,0.73,8.71-0.23,11.02-4.05
								c1.38-2.28,1.51-5.13,1.46-7.61c-0.16-7.83-2.05-15.69-5.46-22.74c-0.11-0.23-0.02-0.51,0.22-0.62
								c0.23-0.11,0.51-0.01,0.62,0.22c3.47,7.17,5.39,15.17,5.55,23.13c0.05,2.62-0.09,5.63-1.59,8.11
								C132.32,102.9,128.41,104.25,124.87,104.25z"/><path fill="#212121" d="M125.67,93.56c-0.23,0-0.43-0.17-0.46-0.4c-0.04-0.25,0.14-0.49,0.4-0.52c0.64-0.09,1.2-0.31,1.6-0.65
								c0.44-0.37,0.7-0.88,0.69-1.37c-0.01-0.76-0.59-1.4-1.21-2.08c-0.19-0.2-0.37-0.41-0.54-0.61c-1.3-1.58-1.86-3.74-1.48-5.75
								c0.05-0.25,0.29-0.42,0.54-0.37c0.25,0.05,0.42,0.29,0.37,0.54c-0.33,1.75,0.15,3.62,1.28,4.99
								c0.16,0.19,0.33,0.38,0.51,0.58c0.67,0.74,1.44,1.58,1.45,2.7c0.01,0.77-0.37,1.55-1.02,2.1c-0.53,0.44-1.25,0.74-2.06,0.85
								C125.72,93.56,125.69,93.56,125.67,93.56z"/><path fill="#212121" d="M125.05,95.77c-1.68,0-3.31-1.14-3.85-2.74c-0.08-0.24,0.05-0.51,0.29-0.59
								c0.24-0.08,0.51,0.05,0.59,0.29c0.44,1.33,1.92,2.26,3.31,2.08c0.27-0.03,0.49,0.15,0.52,0.4c0.03,0.25-0.15,0.49-0.4,0.52
								C125.36,95.77,125.21,95.77,125.05,95.77z"/><path fill="#212121" d="M127.62,81.41c-0.18,0-0.36-0.11-0.43-0.29c-0.1-0.24,0.02-0.51,0.26-0.6c1.37-0.55,3.56-0.93,5.63-0.32
								c0.25,0.07,0.39,0.33,0.31,0.58c-0.07,0.25-0.33,0.39-0.58,0.31c-1.84-0.54-3.8-0.21-5.02,0.29
								C127.73,81.4,127.67,81.41,127.62,81.41z"/><path fill="#212121" d="M131.4,82.91c0,0.36-0.32,0.66-0.72,0.66c-0.41,0-0.73-0.3-0.73-0.66c0-0.37,0.32-0.66,0.73-0.66
								C131.07,82.25,131.4,82.55,131.4,82.91z"/><path fill="#212121" d="M130.67,84.03c-0.66,0-1.2-0.5-1.2-1.12s0.54-1.12,1.2-1.12c0.66,0,1.19,0.5,1.19,1.12
								S131.33,84.03,130.67,84.03z M130.67,82.72c-0.15,0-0.27,0.09-0.27,0.19c0,0.09,0.11,0.19,0.27,0.19
								c0.15,0,0.26-0.1,0.26-0.19C130.93,82.81,130.81,82.72,130.67,82.72z"/><path fill="#212121" d="M116.33,82.88c-0.17,0-0.34-0.09-0.42-0.26c-0.11-0.23-0.02-0.51,0.21-0.62
								c1.32-0.66,3.48-1.2,5.59-0.76c0.25,0.05,0.41,0.3,0.36,0.55c-0.05,0.25-0.3,0.41-0.55,0.36c-1.88-0.39-3.81,0.09-4.98,0.68
								C116.47,82.87,116.4,82.88,116.33,82.88z"/><path fill="#212121" d="M120.25,84.08c0.03,0.36-0.27,0.68-0.67,0.71c-0.41,0.03-0.75-0.24-0.78-0.6
								c-0.03-0.36,0.27-0.68,0.68-0.71C119.88,83.45,120.22,83.72,120.25,84.08z"/><path fill="#212121" d="M119.51,85.26c-0.27,0-0.54-0.09-0.75-0.25c-0.25-0.19-0.41-0.47-0.43-0.78
								c-0.05-0.62,0.45-1.16,1.11-1.21c0.65-0.05,1.22,0.41,1.27,1.03c0.02,0.3-0.09,0.6-0.3,0.83c-0.21,0.22-0.49,0.35-0.8,0.38
								C119.58,85.26,119.55,85.26,119.51,85.26z M119.54,83.95c-0.01,0-0.02,0-0.03,0c-0.15,0.01-0.26,0.11-0.25,0.21
								c0,0.06,0.05,0.09,0.07,0.11c0.06,0.04,0.13,0.06,0.21,0.06c0.08-0.01,0.15-0.04,0.19-0.09c0.02-0.02,0.05-0.07,0.05-0.12
								l0,0C119.78,84.02,119.67,83.95,119.54,83.95z"/><path fill="#212121" d="M131.51,69.17c0.29,1.3-0.23,2.67-1.09,3.69c-1.23,1.46-3.15,2.31-5.06,2.24s-3.76-1.07-4.87-2.63
								c-0.81,2.4-3.22,3.88-5.6,4.78c-3.98,1.51-8.36,1.97-12.57,1.33c1.52,3.04,2.11,3.99,1.48,7.33
								c-1.82,0.21-3.19,1.15-4.16-0.4c-2.5-4.01-2.78-9.32-0.71-13.58c2.07-4.25,6.42-7.31,11.13-7.81c2.03-0.22,4.1,0.01,6.12-0.3
								s3.81-1.5,5.03-3.14c1.05-1.42,2.93-2.18,4.67-1.91c1.75,0.28,3.29,1.59,3.85,3.26L131.51,69.17z"/><path fill="#212121" d="M101.12,86.85c-0.69,0-1.34-0.24-1.87-1.09c-2.58-4.14-2.87-9.64-0.73-14.03
								c2.14-4.38,6.65-7.55,11.5-8.07c0.95-0.1,1.91-0.11,2.83-0.12c1.08-0.01,2.2-0.02,3.27-0.18c1.81-0.27,3.54-1.35,4.73-2.96
								c1.15-1.55,3.21-2.39,5.12-2.09c1.91,0.3,3.6,1.74,4.22,3.57l1.78,7.16c0,0,0,0.01,0,0.01c0.3,1.32-0.14,2.85-1.18,4.09
								c-1.31,1.56-3.39,2.48-5.43,2.41c-1.77-0.07-3.51-0.89-4.72-2.2c-0.9,1.81-2.77,3.26-5.56,4.32
								c-3.8,1.44-7.9,1.95-11.93,1.47c1.24,2.48,1.73,3.66,1.12,6.84c-0.04,0.2-0.2,0.35-0.4,0.37c-0.44,0.05-0.86,0.15-1.27,0.24
								C102.1,86.73,101.6,86.85,101.12,86.85z M125.17,59.19c-1.38,0-2.75,0.67-3.58,1.77c-1.34,1.8-3.28,3.01-5.34,3.32
								c-1.14,0.17-2.29,0.18-3.4,0.19c-0.9,0.01-1.84,0.01-2.74,0.11c-4.54,0.49-8.76,3.45-10.76,7.55c-2,4.1-1.73,9.26,0.69,13.13
								c0.52,0.83,1.09,0.74,2.34,0.45c0.31-0.07,0.66-0.15,1.03-0.21c0.48-2.76,0.01-3.69-1.28-6.27l-0.22-0.43
								c-0.08-0.16-0.06-0.34,0.04-0.48c0.1-0.14,0.28-0.21,0.45-0.19c4.15,0.64,8.42,0.19,12.34-1.3c2.9-1.1,4.69-2.61,5.32-4.5
								c0.06-0.17,0.2-0.29,0.37-0.31c0.17-0.03,0.35,0.05,0.45,0.19c1.02,1.43,2.75,2.36,4.51,2.43c1.76,0.07,3.55-0.73,4.68-2.07
								c0.85-1.02,1.22-2.25,0.99-3.29l-1.77-7.12c-0.5-1.48-1.89-2.66-3.47-2.91C125.6,59.2,125.39,59.19,125.17,59.19z"/><g><path fill="#fff" d="M104.5,86.63c-0.91-1.47-2.15-2.75-3.74-3.33s-3.57-0.25-4.64,1.12c-0.95,1.2-1.01,2.98-0.43,4.4
									c0.58,1.42,1.71,2.53,2.95,3.38c2.48,1.7,5.1,2.67,7.98,3.46"/><path fill="#212121" d="M106.62,96.12c-0.04,0-0.08-0.01-0.12-0.02c-2.47-0.68-5.37-1.63-8.12-3.52
									c-1.52-1.05-2.57-2.26-3.12-3.59c-0.69-1.69-0.5-3.6,0.49-4.86c1.13-1.44,3.26-1.96,5.16-1.27c1.52,0.56,2.9,1.77,3.98,3.52
									c0.13,0.22,0.07,0.51-0.15,0.64c-0.22,0.14-0.5,0.07-0.64-0.15c-0.97-1.57-2.18-2.65-3.5-3.13
									c-1.29-0.47-3.13-0.29-4.11,0.97c-0.77,0.99-0.92,2.57-0.36,3.93c0.48,1.16,1.41,2.23,2.78,3.17
									c2.64,1.82,5.44,2.73,7.84,3.39c0.25,0.07,0.39,0.32,0.33,0.57C107.02,95.98,106.83,96.12,106.62,96.12z"/></g><g><path fill="#212121" d="M101.01,91.11c-0.17,0-0.34-0.1-0.42-0.26c-0.11-0.23-0.02-0.51,0.22-0.62c0.32-0.16,0.63-0.3,0.87-0.51
								c0.22-0.2,0.36-0.43,0.37-0.64c0.01-0.18-0.1-0.38-0.24-0.42c-0.11-0.03-0.26,0-0.44,0.03c-0.19,0.04-0.4,0.07-0.63,0.06
								c-0.48-0.04-0.93-0.33-1.25-0.79c-0.25-0.37-0.38-0.78-0.49-1.15c-0.08-0.25,0.06-0.51,0.31-0.58
								c0.25-0.08,0.51,0.06,0.58,0.31c0.1,0.32,0.2,0.64,0.37,0.9c0.15,0.23,0.36,0.37,0.56,0.39c0.11,0.01,0.24-0.02,0.39-0.04
								c0.25-0.05,0.56-0.1,0.88-0.01c0.55,0.16,0.93,0.73,0.9,1.35c-0.02,0.47-0.27,0.93-0.68,1.3c-0.33,0.29-0.73,0.48-1.07,0.65
								C101.15,91.1,101.08,91.11,101.01,91.11z"/></g></g><g><path fill="#fff" d="M87.62,70.83c-3.18-16.92,33.07-29.07,39.91-16.51c0.33,0.6,0.54,1.26,0.71,1.93l3.6,14.52
							c-3.57-14.42-41.51-1.73-40.43,15.37L87.62,70.83z"/><path fill="#212121" d="M91.41,86.61c-0.21,0-0.4-0.14-0.45-0.35l-3.79-15.31c0-0.01,0-0.02-0.01-0.03
							c-1.7-9.04,7.39-16.59,17.15-20.07c8.81-3.14,19.96-3.46,23.63,3.26c0.31,0.57,0.55,1.22,0.75,2.04l3.59,14.52l0,0
							c0.06,0.25-0.09,0.5-0.34,0.56c-0.25,0.06-0.5-0.09-0.56-0.34l0,0c-1.17-4.71-6.58-6.8-14.47-5.59
							c-12.35,1.9-25.67,10.92-25.04,20.82c0.02,0.24-0.16,0.45-0.39,0.49C91.46,86.61,91.43,86.61,91.41,86.61z M88.07,70.74
							l3.08,12.43c1.81-9.16,14.12-17.01,25.63-18.78c6.31-0.97,11.14,0.1,13.72,2.9l-2.7-10.91c-0.19-0.75-0.4-1.33-0.67-1.82
							c-3.4-6.24-14.05-5.84-22.5-2.83C95.24,55.07,86.49,62.24,88.07,70.74z"/></g><g><ellipse cx="82.74" cy="89.85" fill="#212121" rx="1.92" ry="1.06"/><path fill="#212121" d="M82.74,91.37c-1.36,0-2.39-0.65-2.39-1.52c0-0.87,1.03-1.52,2.39-1.52c1.36,0,2.39,0.65,2.39,1.52
						C85.12,90.72,84.1,91.37,82.74,91.37z M82.74,89.26c-0.9,0-1.46,0.38-1.46,0.59c0,0.21,0.55,0.59,1.46,0.59
						c0.9,0,1.46-0.38,1.46-0.59C84.19,89.64,83.64,89.26,82.74,89.26z"/></g><g><path fill="#212121" d="M84.81,96.34c0,0.6-0.93,1.08-2.08,1.08c-1.15,0-2.08-0.48-2.08-1.08s0.93-6.49,2.08-6.49
						C83.88,89.85,84.81,95.74,84.81,96.34z"/><path fill="#212121" d="M82.74,97.89c-1.45,0-2.54-0.67-2.54-1.55c0-0.07,0.75-6.96,2.54-6.96c1.79,0,2.54,6.89,2.54,6.96
						C85.28,97.22,84.19,97.89,82.74,97.89z M82.74,90.33c-0.69,0.48-1.61,5.14-1.61,6.01c0,0.22,0.61,0.62,1.61,0.62
						c1,0,1.61-0.4,1.61-0.62C84.35,95.47,83.43,90.8,82.74,90.33z"/></g></g><g><path fill="#212121" d="M121.74,137.53c0.07,1.01-0.68,1.82-1.68,1.82s-1.88-0.81-1.95-1.82c-0.07-1.01,0.68-1.82,1.68-1.82
					S121.66,136.52,121.74,137.53z"/></g><g><path fill="#212121" d="M122.52,147.56c0.07,1.01-0.68,1.82-1.68,1.82s-1.88-0.81-1.95-1.82c-0.07-1.01,0.68-1.82,1.68-1.82
					S122.45,146.55,122.52,147.56z"/></g></g><g><path fill="#212121" d="M193.31,188.65c-0.11,0.02-0.11,0.17,0,0.19c1.23,0.26,2.34,1.03,3.19,2.13c0.82,1.07,1.39,2.46,1.61,4.01
					c0.02,0.11,0.17,0.11,0.19,0c0.44-3.16,2.36-5.64,4.79-6.15c0.11-0.02,0.11-0.17,0-0.19c-1.23-0.26-2.34-1.03-3.19-2.13
					c-0.82-1.07-1.39-2.46-1.61-4.01c-0.02-0.11-0.17-0.11-0.19,0c-0.22,1.55-0.79,2.94-1.61,4.01
					C195.64,187.62,194.54,188.39,193.31,188.65z"/><path fill="#212121" d="M204.03,181.21c-0.07,0.01-0.07,0.11,0,0.12c0.78,0.16,1.48,0.65,2.01,1.35c0.52,0.68,0.88,1.55,1.01,2.53
					c0.01,0.07,0.11,0.07,0.12,0c0.28-1.99,1.49-3.56,3.02-3.88c0.07-0.01,0.07-0.11,0-0.12c-0.78-0.16-1.47-0.65-2.01-1.34
					c-0.52-0.68-0.88-1.55-1.01-2.53c-0.01-0.07-0.11-0.07-0.12,0c-0.14,0.98-0.5,1.85-1.01,2.53
					C205.5,180.56,204.8,181.04,204.03,181.21z"/></g><g><path fill="#212121" d="M49.09,117.76c-1.1,1.07-3.3,0.53-5.01-1.22c-1.71-1.76-2.19-3.97-1.09-5.04
							c0.15-0.14,0.38-0.14,0.52,0.01c0.14,0.15,0.14,0.38-0.01,0.52c-0.78,0.76-0.27,2.58,1.1,3.99c1.37,1.41,3.19,1.96,3.96,1.21
							c0.15-0.14,0.38-0.14,0.52,0.01C49.24,117.39,49.24,117.62,49.09,117.76z"/><path fill="#d3d0ff" d="M25.2,125.09c0,0,0.67,1.56,2.5,3.15c0,0-2.1,2.17,0.84,5.18c2.94,3.02,5.64,2.48,6.6,1.54
							c0.96-0.94,2.02-3.67-1.64-7.43S25.91,124.4,25.2,125.09z"/><path fill="#d3d0ff" d="M64.77,98.62c0.82,1.01,1.7,2.6,1.81,3.87c0.1,1.12-0.37,2.23-1.18,3.02
									c-2.11,2.06-5.44,4.66-11.18,7.43c-5.74,2.76-10.83,10.41-12.71,14.08c-1.88,3.67-5.87,8.08-5.87,8.08
									c0.76-1.92,0.69-4.88-2.17-7.83c-2.87-2.94-7.94-2.97-7.94-2.97c5.41-5.27,17.57-9.11,22.2-17.31
									c4.63-8.2,4.82-8.48,7.79-11.38c0.05-0.05,0.29-0.26,0.36-0.3c1.62-0.66,3.69-0.42,5.53,0.64
									C63.13,96.95,63.68,97.29,64.77,98.62z"/><path fill="#212121" d="M35.01,128.22c0.82,1.01,1.7,2.6,1.81,3.87c0.1,1.12-0.37,2.23-1.18,3.02
									c-0.38,0.37-0.83,0.67-1.35,0.87c-1.42,0.54-3.19,0.3-4.63-0.63c-1.57-1.01-2.43-2.54-2.88-3.64
									c-0.51-1.25-0.68-3.01,0.58-3.86c0.65-0.44,1.56-0.49,2.44-0.12c0.63,0.26,1.16,0.54,1.74,1.04c0.48,0.41,1.11,1.1,1.5,1.81
									c0.45,0.85,0.44,1.81-0.03,2.46c-0.29,0.39-0.74,0.65-1.27,0.73c-0.62,0.08-1.28-0.09-1.78-0.48
									c-0.74-0.57-1.18-1.58-1.18-2.68c0-0.33,0.26-0.59,0.59-0.59c0.33,0,0.59,0.27,0.59,0.59c0,0.74,0.27,1.4,0.72,1.75
									c0.24,0.19,0.58,0.28,0.89,0.24c0.14-0.02,0.34-0.08,0.47-0.25c0.2-0.27,0.18-0.76-0.06-1.19
									c-0.25-0.46-0.74-1.06-1.23-1.48c-0.46-0.4-0.88-0.62-1.42-0.84c-0.39-0.17-0.94-0.25-1.32,0c-0.6,0.41-0.5,1.55-0.14,2.43
									c0.55,1.34,1.41,2.43,2.43,3.09c1.13,0.73,2.49,0.92,3.56,0.51c1.11-0.42,1.87-1.57,1.77-2.68
									c-0.09-1.02-0.86-2.39-1.55-3.23c-1-1.23-2.01-2.07-3.62-2.98c-1.53-0.88-3.22-1.09-4.5-0.57c-0.3,0.12-0.65-0.02-0.77-0.32
									c-0.12-0.3,0.02-0.65,0.33-0.77c1.62-0.66,3.69-0.42,5.53,0.64C32.78,125.93,33.92,126.88,35.01,128.22z"/><path fill="#212121" d="M29.29,131.05c-0.12,0-0.24-0.05-0.33-0.14c-0.18-0.18-0.18-0.48,0.01-0.66l1.4-1.37
							c0.18-0.18,0.48-0.18,0.66,0.01c0.18,0.18,0.18,0.48-0.01,0.66l-1.4,1.37C29.52,131.01,29.4,131.05,29.29,131.05z"/><path fill="#212121" d="M30.93,128.98c0.05,0.02,0.09,0.05,0.13,0.08c0.14,0.15,0.14,0.38-0.01,0.53l-1.41,1.37
								c-0.15,0.14-0.38,0.14-0.52-0.01c-0.04-0.04-0.06-0.08-0.08-0.13c-0.05-0.02-0.09-0.05-0.13-0.08
								c-0.14-0.15-0.14-0.38,0.01-0.52l1.41-1.37c0.15-0.14,0.38-0.14,0.52,0C30.89,128.89,30.91,128.93,30.93,128.98z"/><path fill="#212121" d="M30.75,125.21c0.05,0.02,0.09,0.05,0.13,0.08c0.14,0.15,0.14,0.38-0.01,0.53l-3.15,3.06
								c-0.15,0.14-0.38,0.14-0.52-0.01c-0.04-0.04-0.06-0.08-0.08-0.13c-0.05-0.02-0.09-0.05-0.13-0.08
								c-0.14-0.15-0.14-0.38,0.01-0.52l3.15-3.06c0.15-0.14,0.38-0.14,0.52,0C30.71,125.12,30.74,125.16,30.75,125.21z"/><g><path fill="#212121" d="M35.41,129.99c0.05,0.02,0.09,0.05,0.13,0.08c0.14,0.15,0.14,0.38-0.01,0.53l-2.71,2.64
								c-0.15,0.14-0.38,0.14-0.52-0.01c-0.04-0.04-0.06-0.08-0.08-0.13c-0.05-0.02-0.09-0.05-0.13-0.08
								c-0.14-0.15-0.14-0.38,0.01-0.52l2.71-2.64c0.15-0.14,0.38-0.14,0.52,0C35.36,129.9,35.39,129.94,35.41,129.99z"/></g><g><path fill="#ff527c" d="M50.86,109.93c0.83,0.85,1.42,1.86,1.65,2.82c0.23,0.94-0.08,1.93-0.78,2.62
							c-0.09,0.09-0.2,0.18-0.31,0.26c-0.61,0.46-0.99,0.77-1.43,1.2c-0.23,0.23-0.48,0.49-0.8,0.82c-0.03,0.03-0.06,0.07-0.09,0.1
							c-0.15,0.14-0.38,0.14-0.52,0s-0.15-0.37-0.01-0.52c0.02-0.03,0.05-0.05,0.07-0.08c0.68-0.79,0.16-2.56-1.17-3.93
							c-1.33-1.37-3.08-1.93-3.89-1.27c-0.02,0.02-0.05,0.04-0.07,0.06c-0.15,0.14-0.38,0.13-0.52-0.02s-0.14-0.37,0.01-0.51
							c0.03-0.03,0.07-0.06,0.11-0.09c1.22-1.1,1.66-1.49,2.45-2.7c0.27-0.41,0.71-0.65,1.27-0.71
							C48,107.89,49.63,108.67,50.86,109.93z"/></g><g><path fill="#212121" d="M49.09,117.76c-0.15,0.14-0.38,0.14-0.52-0.01c-0.14-0.15-0.14-0.38,0.01-0.52
						c0.78-0.76,0.27-2.58-1.11-3.99c-1.37-1.41-3.19-1.96-3.96-1.21c-0.15,0.14-0.38,0.14-0.52-0.01
						c-0.14-0.15-0.14-0.38,0.01-0.52c1.1-1.07,3.3-0.53,5.01,1.22S50.19,116.69,49.09,117.76z"/></g></g><g><path fill="#fff" d="M36.3,66.69c-0.14,0.03-0.14,0.21,0,0.24c1.54,0.32,2.92,1.28,3.98,2.66c1.02,1.34,1.74,3.07,2,5.01
				c0.02,0.14,0.21,0.14,0.23,0c0.55-3.94,2.95-7.03,5.98-7.67c0.14-0.03,0.14-0.21,0-0.24c-1.54-0.32-2.92-1.28-3.97-2.66
				c-1.02-1.34-1.74-3.07-2.01-5.01c-0.02-0.14-0.21-0.14-0.23,0c-0.27,1.94-0.99,3.67-2,5.01C39.22,65.41,37.84,66.37,36.3,66.69z"/><path fill="#212121" d="M42.4,75.17c-0.29,0-0.54-0.21-0.58-0.5c-0.25-1.82-0.91-3.47-1.91-4.79c-1.02-1.33-2.3-2.19-3.7-2.49
				c-0.28-0.06-0.47-0.29-0.47-0.57s0.19-0.52,0.47-0.57l0,0c1.4-0.29,2.68-1.15,3.7-2.49c1-1.31,1.66-2.97,1.91-4.79
				c0.04-0.29,0.28-0.5,0.58-0.5c0.29,0,0.54,0.21,0.58,0.5c0.25,1.82,0.91,3.47,1.91,4.79c1.02,1.33,2.3,2.19,3.7,2.49
				c0.28,0.06,0.47,0.29,0.47,0.57c0,0.28-0.19,0.52-0.47,0.57c-2.84,0.59-5.09,3.52-5.61,7.28C42.93,74.95,42.69,75.17,42.4,75.17z
				 M37.49,66.81c1.18,0.48,2.26,1.33,3.15,2.5c0.78,1.03,1.38,2.25,1.75,3.58c0.81-2.89,2.63-5.14,4.91-6.07
				c-1.18-0.48-2.26-1.33-3.15-2.5c-0.78-1.03-1.38-2.25-1.75-3.58c-0.38,1.33-0.97,2.55-1.75,3.58
				C39.75,65.48,38.68,66.33,37.49,66.81z M48.4,67.15C48.4,67.15,48.4,67.15,48.4,67.15C48.4,67.15,48.4,67.15,48.4,67.15z
				 M36.3,66.69L36.3,66.69L36.3,66.69z M48.4,66.48L48.4,66.48C48.4,66.48,48.4,66.48,48.4,66.48z M36.4,66.48
				C36.4,66.48,36.4,66.48,36.4,66.48C36.4,66.48,36.4,66.48,36.4,66.48z"/></g></svg>